<svg xmlns="http://www.w3.org/2000/svg" width="11.599" height="22.499" viewBox="0 0 11.599 22.499">
  <path id="Icon_ionic-ios-attach" data-name="Icon ionic-ios-attach" d="M20.692,8.732a.784.784,0,0,0-.783.783v9.761a4.049,4.049,0,0,1-1.1,2.767,3.974,3.974,0,0,1-2.787,1.19h-.683A3.9,3.9,0,0,1,12.583,22a4.031,4.031,0,0,1-1.2-2.772V6.633a2.729,2.729,0,0,1,.869-1.983,2.988,2.988,0,0,1,2.059-.818,2.795,2.795,0,0,1,2.822,2.8V18.393a1.587,1.587,0,0,1-1.456,1.617,1.543,1.543,0,0,1-1.416-1.617V11.685a.783.783,0,0,0-1.567,0v6.708a3.012,3.012,0,0,0,5.126,2.259,3.172,3.172,0,0,0,.879-2.259V6.633A4.389,4.389,0,0,0,14.3,2.25a4.406,4.406,0,0,0-3.123,1.28,4.332,4.332,0,0,0-1.3,3.108V19.231a5.611,5.611,0,0,0,1.637,3.916,5.427,5.427,0,0,0,3.821,1.6h.683a5.485,5.485,0,0,0,3.811-1.612,5.64,5.64,0,0,0,1.2-1.737,5.257,5.257,0,0,0,.447-2.114V9.515A.777.777,0,0,0,20.692,8.732Z" transform="translate(-9.872 -2.25)" fill="#fff"/>
</svg>
