<svg xmlns="http://www.w3.org/2000/svg" width="25.667" height="25.667" viewBox="0 0 25.667 25.667">
  <g id="Esc" transform="translate(4 -5)">
    <path id="Path_1510" data-name="Path 1510" d="M21.955,20.56,18.7,17.308l3.252-3.252a.986.986,0,0,0-1.394-1.394l-3.252,3.252-3.252-3.252a.986.986,0,0,0-1.394,1.394l3.252,3.252L12.663,20.56a.953.953,0,0,0,0,1.394.979.979,0,0,0,1.394,0L17.309,18.7l3.252,3.252a.991.991,0,0,0,1.394,0A.979.979,0,0,0,21.955,20.56Z" transform="translate(-8.476 0.525)" fill="#fff"/>
    <path id="Path_1511" data-name="Path 1511" d="M16.208,5.1A11.1,11.1,0,1,1,8.354,8.354,11.032,11.032,0,0,1,16.208,5.1m0-1.728A12.833,12.833,0,1,0,29.042,16.208,12.831,12.831,0,0,0,16.208,3.375Z" transform="translate(-7.375 1.625)" fill="#fff"/>
  </g>
</svg>
