<svg id="Group_2799" data-name="Group 2799" xmlns="http://www.w3.org/2000/svg" width="12.078" height="20.193" viewBox="0 0 12.078 20.193">
  <path id="Path_428" data-name="Path 428" d="M2.925,15.124A2.4,2.4,0,0,1,.942,14,7.869,7.869,0,0,1,0,11.64S0,14.12,0,14.272a2.8,2.8,0,0,0,2.922,2.42H9.153a2.8,2.8,0,0,0,2.922-2.42c.007-.152,0-2.632,0-2.632A7.869,7.869,0,0,1,11.136,14a2.4,2.4,0,0,1-1.983,1.124Z" transform="translate(0)" fill="#fff"/>
  <path id="Path_429" data-name="Path 429" d="M7.164,20.193H4.915a.431.431,0,0,1-.432-.432v-3.83a.431.431,0,0,1,.432-.431H7.164a.432.432,0,0,1,.432.431v3.83a.432.432,0,0,1-.432.432" transform="translate(0)" fill="#fff"/>
  <g id="Rectangle_185" data-name="Rectangle 185" transform="translate(2)" fill="#fff" stroke="#fff" stroke-width="5">
    <rect width="8" height="14" rx="4" stroke="none"/>
    <rect x="2.5" y="2.5" width="3" height="9" rx="1.5" fill="none"/>
  </g>
</svg>
