<svg xmlns="http://www.w3.org/2000/svg" width="14.61" height="14.61" viewBox="0 0 14.61 14.61">
  <path id="Icon_open-magnifying-glass" data-name="Icon open-magnifying-glass" d="M6.335-.027a6.335,6.335,0,1,0,0,12.669,6.261,6.261,0,0,0,3-.742,1.81,1.81,0,0,0,.235.235l1.81,1.81a1.846,1.846,0,1,0,2.606-2.606l-1.81-1.81a1.81,1.81,0,0,0-.29-.235,6.249,6.249,0,0,0,.8-3A6.341,6.341,0,0,0,6.353-.045Zm0,1.81a4.5,4.5,0,0,1,4.525,4.525A4.538,4.538,0,0,1,9.665,9.421l-.054.054a1.81,1.81,0,0,0-.235.235,4.529,4.529,0,0,1-3.059,1.14,4.525,4.525,0,1,1,0-9.049Z" transform="translate(0 0.045)" fill="#55c1d1"/>
</svg>
